<svg width="22" height="22" viewBox="0 0 22 22" fill="none" xmlns="http://www.w3.org/2000/svg">
<path d="M16.4726 5.94356L18.3044 4.06152M4.20166 18.6662L5.58182 17.2358L4.20166 18.6662Z" stroke="white" stroke-linecap="round" stroke-linejoin="round"/>
<path d="M10.9016 3.73621L10.8514 1.00098" stroke="white" stroke-linecap="round" stroke-linejoin="round"/>
<path d="M5.58166 5.94356L3.7749 4.06152M17.8777 18.6662L16.4724 17.2358L17.8777 18.6662Z" stroke="white" stroke-linecap="round" stroke-linejoin="round"/>
<path d="M18.8815 11.5903H21.165M0.88916 11.5903H3.1727H0.88916Z" stroke="white" stroke-linecap="round" stroke-linejoin="round"/>
<path fill-rule="evenodd" clip-rule="evenodd" d="M13.5491 17.2613V21.0003H8.78124V17.2613C6.57298 16.3328 4.99207 14.1497 4.99207 11.5901C4.99207 8.17732 7.75239 5.41699 11.1652 5.41699C14.5779 5.41699 17.3383 8.17732 17.3383 11.5901C17.3383 14.1497 15.7824 16.3328 13.5491 17.2613Z" stroke="white" stroke-linecap="round" stroke-linejoin="round"/>
<path d="M13.8627 18.7803H9.09485" stroke="white"/>
</svg>
