<svg width="20" height="20" viewBox="0 0 20 20" fill="none" xmlns="http://www.w3.org/2000/svg">
<path d="M6.46875 11.333C6.46875 9.38275 8.04974 7.80176 10 7.80176C11.9503 7.80176 13.5312 9.38275 13.5312 11.333V14.1976H6.46875V11.333Z" stroke="white" stroke-width="0.9375"/>
<path d="M7.1355 3.33333C7.1355 1.75127 8.41802 0.46875 10.0001 0.46875C11.5821 0.46875 12.8647 1.75127 12.8647 3.33333C12.8647 4.9154 11.5821 6.19792 10.0001 6.19792C8.41802 6.19792 7.1355 4.9154 7.1355 3.33333Z" stroke="white" stroke-width="0.9375"/>
<path d="M0.589844 11.9387C0.589844 10.3901 1.84523 9.13477 3.39382 9.13477C4.94242 9.13477 6.1978 10.3901 6.1978 11.9387V14.1973H0.589844V11.9387Z" stroke="white" stroke-width="0.9375"/>
<path d="M1.13525 5.39329C1.13525 4.14594 2.14643 3.13477 3.39378 3.13477C4.64112 3.13477 5.6523 4.14594 5.6523 5.39329C5.6523 6.64064 4.64112 7.65181 3.39378 7.65181C2.14643 7.65181 1.13525 6.64064 1.13525 5.39329Z" stroke="white" stroke-width="0.9375"/>
<path d="M13.8018 11.9387C13.8018 10.3901 15.0571 9.13477 16.6057 9.13477C18.1543 9.13477 19.4097 10.3901 19.4097 11.9387V14.1973H13.8018V11.9387Z" stroke="white" stroke-width="0.9375"/>
<path d="M14.3472 5.39329C14.3472 4.14594 15.3583 3.13477 16.6057 3.13477C17.853 3.13477 18.8642 4.14594 18.8642 5.39329C18.8642 6.64064 17.853 7.65181 16.6057 7.65181C15.3583 7.65181 14.3472 6.64064 14.3472 5.39329Z" stroke="white" stroke-width="0.9375"/>
<path d="M0.46875 17.6668C0.46875 16.637 1.30355 15.8022 2.33333 15.8022H17.6667C18.6964 15.8022 19.5312 16.637 19.5312 17.6668C19.5312 18.6966 18.6964 19.5314 17.6667 19.5314H2.33333C1.30355 19.5314 0.46875 18.6966 0.46875 17.6668Z" stroke="white" stroke-width="0.9375"/>
<path d="M0 17.6668C0 16.3782 1.04467 15.3335 2.33333 15.3335H13.3333V20.0002H2.33333C1.04467 20.0002 0 18.9555 0 17.6668Z" fill="white"/>
</svg>
